<?xml version="1.0" standalone="no"?>
<!DOCTYPE svg PUBLIC "-//W3C//DTD SVG 20010904//EN"
 "http://www.w3.org/TR/2001/REC-SVG-20010904/DTD/svg10.dtd">
<svg version="1.0" xmlns="http://www.w3.org/2000/svg"
 width="32.000000pt" height="32.000000pt" viewBox="0 0 32.000000 32.000000"
 preserveAspectRatio="xMidYMid meet">

<g transform="translate(0.000000,32.000000) scale(0.100000,-0.100000)"
fill="#000000" stroke="none">
<path d="M131 281 c-25 -12 -38 -13 -61 -4 -28 10 -30 9 -30 -10 0 -12 4 -17
8 -12 9 13 91 19 182 13 35 -2 39 -5 43 -33 3 -24 4 -22 5 12 l2 41 -28 -10
c-22 -9 -35 -8 -58 4 -27 13 -34 13 -63 -1z"/>
<path d="M80 225 c0 -42 23 -100 51 -128 l30 -30 26 24 c31 29 53 78 53 119 0
33 3 32 -112 34 -42 1 -48 -2 -48 -19z m81 -35 c22 0 29 -5 29 -20 0 -16 -7
-20 -30 -20 -16 0 -30 3 -30 8 0 4 -3 18 -5 32 -3 14 -3 19 1 13 3 -7 19 -13
35 -13z"/>
<path d="M52 205 c0 -16 2 -22 5 -12 2 9 2 23 0 30 -3 6 -5 -1 -5 -18z"/>
<path d="M253 159 c-7 -28 -26 -58 -51 -82 l-39 -38 -33 27 c-18 16 -41 46
-51 69 -10 22 -19 34 -19 27 0 -24 29 -69 65 -101 l37 -32 31 24 c36 28 81
106 75 133 -1 9 -8 -2 -15 -27z"/>
</g>
</svg>
